<?xml version="1.0" encoding="utf-8"?>

<!DOCTYPE svg PUBLIC "-//W3C//DTD SVG 1.1//EN" "http://www.w3.org/Graphics/SVG/1.1/DTD/svg11.dtd">
<svg version="1.1" id="Layer_1" xmlns="http://www.w3.org/2000/svg" xmlns:xlink="http://www.w3.org/1999/xlink" x="0px" y="0px"
	 viewBox="0 0 1351.015 1750.932" style="enable-background:new 0 0 1351.015 1750.932;" xml:space="preserve">
<style type="text/css">
	.st0{fill:#FFFFFF;}
</style>
<g>
	<path d="M918.517,169.746c8.546,9.658,96.15,83.548,106.244,224.061c3.519,25.194-0.278,102.401-31.063,164.034
		c-1.495-70.264-38.384-122.672-86.558-187.852c8.836-4.72,85.356-10.344,64.437-22.259c-19.779-3.302-104.255,44.619-277.172-6.334
		c-25.838-7.459-73.125-23.644-73.125-23.644s-44.197,25.222-80.967,34.183c-57.488,13.285-40.246-2.082-65.866,23.002
		c-76.559,64.212-95.485,131.256-102.184,144.843c-0.496,14.14,0.204,28.345-0.343,42.492c-4.651-8.056-13.881-31.893-16.64-40.065
		C245.667,191.984,653.607-73.965,918.517,169.746z"/>
	<path d="M624.763,329.32c16.953,5.765,33.971,11.341,51.012,16.8c127.164,43.65,211.397,24.974,220.22,25.262
		c50.12,67.629,95.023,128.164,87.082,209.361c0.108,2.942-17.758,193.762-163.633,302.478
		c-14.04,5.058-34.731,31.428-118.051,43.716C533.116,939.692,412.935,771.66,386.052,604.407c-2.893-22.425-4.06-2.131-4.06-80.552
		c-0.135-3.165,12.375-31.394,17.179-40.524c25.293-53.668,95.18-114.095,97.665-114.443c76.919-9.961,83.396-21.595,105.442-30.094
		C624.667,326.187,621.999,328.771,624.763,329.32z"/>
	<path d="M537.863,889.305c0.233-0.058,0.692-0.175,0.926-0.226c79.029,50.181,101.835,45.98,163.378,47.943
		c68.287-6.326,111.596-40.27,115.5-41.391c3.01,9.307,5.138,18.862,7.857,28.257c12.358,40.662,11.138,38.188,8.236,40.691
		c-6.305,4.599-152.156,148.601-155.739,150.514c-6.331-3.695-160.968-150.701-161.395-151.724
		C517.738,955.87,532.089,909.896,537.863,889.305z"/>
	<path d="M848.38,966.41c1.002,0.301,77.466,37.29,81.652,40.21c2.049,1.322,10.703-13.464-152.897,246.481
		c-1.611-0.857-92.804-119.962-93.569-128.597C684.532,1123.498,845.449,965.347,848.38,966.41z"/>
	<path d="M505.299,967.445c2.133,1.136,165.612,156.015,169.609,160.302c1.891,1.986-92.899,124.182-96.586,125.565
		c-166.054-251.984-167.832-243.917-159.311-247.275C420.124,1005.471,501.216,966.936,505.299,967.445z"/>
	<path d="M408.924,1024.258c1.662-0.27,3.877-1.13,5.044,0.612c5.901,7.245,158.776,240.948,165.018,244.345
		c4.464,0.089,55.535-68.532,56.245-69.539c52.406-61.495,37.99-65.609,59.08-38.228c94.774,129.979,78.033,118.312,99.597,83.992
		c3.644-6.172,43.982-70.218,47.411-75.814c96.261-153.318,90.012-147.353,97.476-145.565
		c281.349,62.464,283.353,111.357,311.158,294.665c8.23,49.741,42.834,250.267,42.834,356.74h-228.42
		c-2.16-15.858-27.247-236.167-28.33-243.543c-0.108-5.682-8.154-4.722-8.199-0.583c-0.182,2.942,27.87,243.124,27.988,244.126
		H322.971c0.393-16.492,17.13-236.699,16.005-240.97c-1.538-2.682-5.495-3.149-7.252-0.423
		c-1.329,3.177-17.177,239.149-17.295,241.393H58.24c-0.138-20.91,1.071-41.785,1.662-62.673
		c1.079-25.699,2.463-51.391,4.643-77.024c5.073-61.398,15.109-122.22,22.82-183.304c4.096-31.078,7.799-62.207,11.654-93.307
		c0.423-5.051,3.061-9.548,3.703-14.541c4.016-26.1,10.204-52.141,21.792-75.997c7.026-13.564,15.43-26.457,25.575-37.893
		c2.15-2.245,4.81-3.914,6.946-6.166c3.549-3.287,6.006-7.573,9.774-10.641c11.749-10.175,24.701-18.862,37.98-26.902
		c5.882-3.134,11.902-5.998,17.784-9.14c14.278-6.771,29.132-12.252,44.102-17.274c8.367-2.347,16.508-5.386,24.795-7.981
		c9.198-2.573,18.345-5.306,27.682-7.318C348.75,1036.954,378.939,1031.007,408.924,1024.258 M623.831,1283.727
		c-2.352,10.994-10.865,14.364-4.92,25.269c0,0,12.557,26.725,12.558,26.727c8.582,16.729-31.361,240.174-29.606,248.966
		c3.134,3.243,7.172,5.517,9.869,9.184c3.819,2.974,7.165,6.56,11.304,9.125c0.471,0.938,58.981,51.597,61.259,51.099
		c0.773-0.556,80.508-68.293,80.508-68.293c2.035-5.124-16.57-110.519-16.968-126.024c-4.325-13.721-3.214-31.39-6.785-41.056
		c0,0-4.126-31.921-4.242-33.884c-1.583-4.088-7.531-46.455-7.587-47.455c24.286-48.512,20.884-18.26-48.468-177.984
		C670.815,1181.146,627.443,1278.538,623.831,1283.727z"/>
	<path class="st0" d="M632.854,1265.163c16.268-35.094,31.821-70.581,47.9-105.763c69.529,160.131,72.235,130.508,48.468,177.984
		c0.056,1.001,6.006,43.37,7.587,47.455c0.115,1.963,4.242,33.884,4.242,33.884c3.661,9.91,2.418,27.201,6.785,41.056
		c0.395,15.37,18.987,120.939,16.968,126.024c0,0-79.269,67.401-80.508,68.293c-2.278,0.498-60.788-50.161-61.259-51.099
		c-4.14-2.566-7.485-6.152-11.304-9.125c-2.697-3.666-6.734-5.94-9.869-9.184c-0.391-1.96,10.659-75.828,16.705-118.962
		c18.653-133.186,23.517-113.036-2.055-163.101c-0.627-1.217,0.656-2.303,0.86-3.448c2.173-9.308,4.29-5.32,6.458-15.451
		C626.328,1280.14,632.731,1265.775,632.854,1265.163 M680.061,1181.113c-63.975,143.253-59.478,108.004-36.209,161.082
		c-1.035,0.175-2.055,0.379-3.068,0.627c0.991,0.139,1.99,0.277,3.003,0.423c-0.073,3.97-31.435,228.49-32.171,236.677
		c1.595,2.469,70.536,62.897,71.536,63.774c1.543-1.001,43.124-36.556,70.596-63.103c-37.526-253.499-34.145-236.835-36.231-239.039
		c2.481-5.105,15.706-34.417,16.997-37.943c-4.732-14.072-50.674-116.648-53.65-123.321
		C680.666,1180.493,680.265,1180.908,680.061,1181.113z"/>
	<path d="M680.061,1181.113c0.204-0.204,0.605-0.62,0.802-0.824c3.094,6.936,49.049,109.638,53.65,123.321
		c-1.382,3.776-14.695,33.209-16.997,37.943c2.096,2.215-1.268-14.28,36.231,239.039c-28.662,27.697-69.54,62.418-70.596,63.103
		c-1.007-0.882-69.951-61.32-71.536-63.774c0.733-8.149,32.099-232.728,32.171-236.677c-1.013-0.146-2.012-0.284-3.003-0.423
		c1.013-0.248,2.034-0.452,3.068-0.627c-17.416-39.727-18.338-39.393-17.521-41.202
		C644.165,1260.994,662.204,1221.097,680.061,1181.113z"/>
	<path class="st0" d="M1031.641,1427.761c2.216-0.007,4.351,1.866,4.395,4.162c1.031,7.025,26.164,227.644,28.33,243.543h-8.542
		C1024.912,1412.166,1025.911,1429.236,1031.641,1427.761z"/>
	<path class="st0" d="M331.724,1434.073c1.757-2.726,5.714-2.26,7.252,0.423c1.122,4.262-15.614,224.55-16.005,240.97h-8.542
		C314.573,1672.736,330.403,1437.233,331.724,1434.073z"/>
</g>
</svg>
